SplineFontDB: 3.0
FontName: Jones-it-BoldItalic
FullName: Jones* Bold Italic
FamilyName: Jones*
Weight: Bold
Copyright: 
UComments: "2016-1-29: Created with FontForge (http://fontforge.org)"
Version: 002.000
ItalicAngle: -10
UnderlinePosition: -150
UnderlineWidth: 100
Ascent: 784
Descent: 216
InvalidEm: 0
LayerCount: 2
Layer: 0 0 "Back" 1
Layer: 1 0 "Fore" 0
XUID: [1021 31 -699969567 4970488]
FSType: 0
OS2Version: 2
OS2_WeightWidthSlopeOnly: 0
OS2_UseTypoMetrics: 0
CreationTime: 1454127431
ModificationTime: 1454902507
PfmFamily: 17
TTFWeight: 700
TTFWidth: 5
LineGap: 0
VLineGap: 0
OS2TypoAscent: 784
OS2TypoAOffset: 0
OS2TypoDescent: -216
OS2TypoDOffset: 0
OS2TypoLinegap: 200
OS2WinAscent: 850
OS2WinAOffset: 0
OS2WinDescent: 300
OS2WinDOffset: 0
HheadAscent: 850
HheadAOffset: 0
HheadDescent: -300
HheadDOffset: 0
OS2SubXSize: 650
OS2SubYSize: 600
OS2SubXOff: 0
OS2SubYOff: 75
OS2SupXSize: 650
OS2SupYSize: 600
OS2SupXOff: 0
OS2SupYOff: 350
OS2StrikeYSize: 50
OS2StrikeYPos: 314
OS2CapHeight: 700
OS2XHeight: 520
OS2Vendor: 'PfEd'
Lookup: 5 0 0 "lig" { "lig-1"  } ['calt' ('DFLT' <'dflt' > 'grek' <'dflt' > 'latn' <'dflt' > ) ]
Lookup: 1 0 0 "fi" { "fi-1"  } ['ss01' ('DFLT' <'dflt' > 'grek' <'dflt' > 'latn' <'dflt' > ) ]
Lookup: 258 0 0 "kern" { "kerning" [150,0,2] } ['kern' ('DFLT' <'dflt' > 'grek' <'dflt' > 'latn' <'dflt' > ) ]
MarkAttachClasses: 1
DEI: 91125
KernClass2: 13 10 "kerning"
 3 A L
 5 D O Q
 3 F P
 3 K X
 3 V W
 13 b e h m n o p
 15 a c g q r s u z
 14 d f i j l t fi
 3 k x
 3 v w
 3 R B
 3 T Y
 1 A
 7 C G O Q
 3 T Y
 3 V W
 15 a m n p r s u z
 11 c d e g o q
 18 b f h i j k l t fi
 5 v w y
 1 x

StartChar: E
Encoding: 69 69 0
Width: 670
VWidth: 0
Flags: HMW
AnchorPoint: "ced" 495 0 basechar 0
AnchorPoint: "dot" 499.009 760 basechar 0
LayerCount: 2
Fore
SplineSet
173.705078125 418 m 5
 633.705078125 418 l 5
 612.545898438 298 l 1
 152.545898438 298 l 1
 173.705078125 418 l 5
223.428710938 700 m 1
 733.428710938 700 l 1
 712.26953125 580 l 1
 202.26953125 580 l 1
 223.428710938 700 l 1
121.159179688 120 m 1
 631.159179688 120 l 1
 610 0 l 1
 100 0 l 1
 121.159179688 120 l 1
223.428710938 700 m 1
 353.428710938 700 l 1
 230 0 l 1
 100 0 l 1
 223.428710938 700 l 1
EndSplineSet
EndChar

StartChar: I
Encoding: 73 73 1
Width: 300
VWidth: 0
Flags: HMW
AnchorPoint: "ced" 145 0 basechar 0
AnchorPoint: "dot" 274.009 760 basechar 0
LayerCount: 2
Fore
SplineSet
208.428710938 700 m 1
 338.428710938 700 l 1
 215 0 l 1
 85 0 l 1
 208.428710938 700 l 1
EndSplineSet
EndChar

StartChar: F
Encoding: 70 70 2
Width: 665
VWidth: 0
Flags: HMW
AnchorPoint: "ced" 145 0 basechar 0
AnchorPoint: "dot" 499.009 760 basechar 0
LayerCount: 2
Fore
SplineSet
170.177734375 398 m 1
 630.177734375 398 l 1
 609.018554688 278 l 5
 149.018554688 278 l 5
 170.177734375 398 l 1
223.428710938 700 m 1
 733.428710938 700 l 1
 712.26953125 580 l 1
 202.26953125 580 l 1
 223.428710938 700 l 1
223.428710938 700 m 1
 353.428710938 700 l 1
 230 0 l 1
 100 0 l 1
 223.428710938 700 l 1
EndSplineSet
EndChar

StartChar: H
Encoding: 72 72 3
Width: 765
VWidth: 0
Flags: HMW
AnchorPoint: "ced" 595 0 basechar 0
AnchorPoint: "dot" 504.009 760 basechar 0
LayerCount: 2
Fore
SplineSet
658.428710938 700 m 1
 788.428710938 700 l 1
 665 0 l 1
 535 0 l 1
 658.428710938 700 l 1
173.705078125 418 m 1
 643.705078125 418 l 1
 622.545898438 298 l 1
 152.545898438 298 l 1
 173.705078125 418 l 1
223.428710938 700 m 1
 353.428710938 700 l 1
 230 0 l 1
 100 0 l 1
 223.428710938 700 l 1
EndSplineSet
EndChar

StartChar: L
Encoding: 76 76 4
Width: 655
VWidth: 0
Flags: HMW
AnchorPoint: "ced" 365 0 basechar 0
AnchorPoint: "dot" 519.009 760 basechar 0
LayerCount: 2
Fore
SplineSet
121.159179688 120 m 5
 631.159179688 120 l 5
 610 0 l 1
 100 0 l 1
 121.159179688 120 l 5
223.428710938 700 m 1
 353.428710938 700 l 1
 230 0 l 1
 100 0 l 1
 223.428710938 700 l 1
EndSplineSet
EndChar

StartChar: T
Encoding: 84 84 5
Width: 690
VWidth: 0
Flags: HMW
AnchorPoint: "ced" 347 0 basechar 0
AnchorPoint: "dot" 479.009 760 basechar 0
LayerCount: 2
Fore
SplineSet
173.428710938 700 m 1
 763.428710938 700 l 1
 742.26953125 580 l 1
 152.26953125 580 l 1
 173.428710938 700 l 1
403.428710938 700 m 5
 533.428710938 700 l 5
 410 0 l 5
 280 0 l 5
 403.428710938 700 l 5
EndSplineSet
EndChar

StartChar: O
Encoding: 79 79 7
Width: 850
VWidth: 0
Flags: HMW
AnchorPoint: "ced" 425 0 basechar 0
AnchorPoint: "dot" 559.009 760 basechar 0
LayerCount: 2
Fore
SplineSet
261.71484375 350 m 0
 237.734375 214 313.395507812 110 444.395507812 110 c 0
 575.395507812 110 687.734375 214 711.71484375 350 c 0
 735.6953125 486 660.033203125 590 529.033203125 590 c 4
 398.033203125 590 285.6953125 486 261.71484375 350 c 0
131.71484375 350 m 0
 166.803710938 549 355.192382812 710 550.192382812 710 c 0
 745.192382812 710 876.803710938 549 841.71484375 350 c 0
 806.625 151 618.236328125 -10 423.236328125 -10 c 0
 228.236328125 -10 96.625 151 131.71484375 350 c 0
EndSplineSet
EndChar

StartChar: C
Encoding: 67 67 8
Width: 732
VWidth: 0
Flags: HMW
AnchorPoint: "ced" 425 0 basechar 0
AnchorPoint: "dot" 559.009 760 basechar 0
LayerCount: 2
Fore
SplineSet
261.71484375 350 m 0
 237.734375 214 313.395507812 110 444.395507812 110 c 4
 522.395507812 110 588.157226562 137 646.03125 193 c 5
 711.924804688 113 l 1
 633.700195312 38 529.236328125 -10 423.236328125 -10 c 0
 228.236328125 -10 96.625 151 131.71484375 350 c 0
 166.803710938 549 355.192382812 710 550.192382812 710 c 0
 656.192382812 710 743.728515625 662 795.50390625 587 c 1
 701.397460938 507 l 1
 663.272460938 563 607.033203125 590 529.033203125 590 c 4
 398.033203125 590 285.6953125 486 261.71484375 350 c 0
EndSplineSet
EndChar

StartChar: A
Encoding: 65 65 9
Width: 800
VWidth: 0
Flags: HMW
AnchorPoint: "ced" 687 0 basechar 0
AnchorPoint: "ring" 523.429 700 basechar 0
AnchorPoint: "dot" 534.009 760 basechar 0
LayerCount: 2
Fore
SplineSet
463.428710938 700 m 1
 583.428710938 700 l 1
 571.666015625 690 l 1
 461.666015625 690 l 1
 463.428710938 700 l 1
231.608398438 270 m 1
 643.608398438 270 l 1
 623.331054688 155 l 1
 211.331054688 155 l 1
 231.608398438 270 l 1
640 0 m 5
 471.666015625 690 l 1
 583.428710938 700 l 1
 780 0 l 1
 640 0 l 5
463.428710938 700 m 1
 571.666015625 690 l 1
 160 0 l 1
 20 0 l 1
 463.428710938 700 l 1
EndSplineSet
EndChar

StartChar: V
Encoding: 86 86 10
Width: 780
VWidth: 0
Flags: HMW
AnchorPoint: "ced" 390 0 basechar 0
AnchorPoint: "dot" 523.009 760 basechar 0
LayerCount: 2
Fore
SplineSet
450 0 m 1
 330 0 l 1
 335.290039062 30 l 1
 455.290039062 30 l 1
 450 0 l 1
288.428710938 700 m 1
 455.290039062 30 l 1
 330 0 l 1
 143.428710938 700 l 1
 288.428710938 700 l 1
450 0 m 1
 335.290039062 30 l 1
 738.428710938 700 l 5
 883.428710938 700 l 1
 450 0 l 1
EndSplineSet
EndChar

StartChar: G
Encoding: 71 71 11
Width: 782
VWidth: 0
Flags: HMW
AnchorPoint: "ced" 425 0 basechar 0
AnchorPoint: "dot" 559.009 760 basechar 0
LayerCount: 2
Fore
SplineSet
767.241210938 370 m 1
 746.08203125 250 l 1
 469.08203125 250 l 1
 490.241210938 370 l 1
 767.241210938 370 l 1
721.924804688 113 m 1
 591.924804688 113 l 1
 637.241210938 370 l 1
 767.241210938 370 l 1
 721.924804688 113 l 1
261.71484375 350 m 0
 237.734375 214 313.395507812 110 444.395507812 110 c 0
 522.395507812 110 594.038085938 142 657.793945312 203 c 5
 721.924804688 113 l 1
 643.700195312 38 529.236328125 -10 423.236328125 -10 c 0
 228.236328125 -10 96.625 151 131.71484375 350 c 0
 166.803710938 549 355.192382812 710 550.192382812 710 c 0
 656.192382812 710 743.728515625 662 795.50390625 587 c 1
 701.397460938 507 l 1
 663.272460938 563 607.033203125 590 529.033203125 590 c 0
 398.033203125 590 285.6953125 486 261.71484375 350 c 0
EndSplineSet
EndChar

StartChar: D
Encoding: 68 68 12
Width: 810
VWidth: 0
Flags: HMW
AnchorPoint: "ced" 325 0 basechar 0
AnchorPoint: "dot" 479.009 760 basechar 0
LayerCount: 2
Fore
SplineSet
223.428710938 700 m 1
 503.428710938 700 l 1
 482.26953125 580 l 1
 202.26953125 580 l 1
 223.428710938 700 l 1
121.159179688 120 m 1
 401.159179688 120 l 1
 380 0 l 1
 100 0 l 1
 121.159179688 120 l 1
223.428710938 700 m 1
 353.428710938 700 l 1
 230 0 l 1
 100 0 l 1
 223.428710938 700 l 1
401.159179688 120 m 1
 532.159179688 120 647.734375 214 671.71484375 350 c 0
 695.6953125 486 613.26953125 580 482.26953125 580 c 1
 503.428710938 700 l 1
 698.428710938 700 836.803710938 549 801.71484375 350 c 0
 766.625 151 575 0 380 0 c 1
 401.159179688 120 l 1
EndSplineSet
EndChar

StartChar: U
Encoding: 85 85 13
Width: 760
VWidth: 0
Flags: HMW
AnchorPoint: "ced" 380 0 basechar 0
AnchorPoint: "dot" 514.009 760 basechar 0
LayerCount: 2
Fore
SplineSet
617.8984375 300 m 5
 688.428710938 700 l 1
 813.428710938 700 l 1
 739.37109375 280 l 1
 617.8984375 300 l 5
119.37109375 280 m 1
 193.428710938 700 l 1
 318.428710938 700 l 1
 247.8984375 300 l 5
 119.37109375 280 l 1
617.8984375 300 m 5
 739.37109375 280 l 1
 709.572265625 111 557.236328125 -10 378.236328125 -10 c 0
 199.236328125 -10 89.572265625 111 119.37109375 280 c 1
 247.8984375 300 l 5
 228.678710938 191 305.041015625 125 402.041015625 125 c 4
 499.041015625 125 598.678710938 191 617.8984375 300 c 5
EndSplineSet
EndChar

StartChar: o
Encoding: 111 111 14
Width: 650
VWidth: 0
Flags: HMW
AnchorPoint: "ced" 325 0 basechar 0
AnchorPoint: "dot" 443.668 673 basechar 0
LayerCount: 2
Fore
SplineSet
225.844726562 260 m 0
 210.15234375 171 256.514648438 105 343.514648438 105 c 0
 430.514648438 105 500.15234375 171 515.844726562 260 c 4
 531.538085938 349 485.17578125 415 398.17578125 415 c 0
 311.17578125 415 241.538085938 349 225.844726562 260 c 0
100.844726562 260 m 0
 127.118164062 409 269.453125 530 418.453125 530 c 0
 567.453125 530 667.118164062 409 640.844726562 260 c 0
 614.572265625 111 472.236328125 -10 323.236328125 -10 c 0
 174.236328125 -10 74.572265625 111 100.844726562 260 c 0
EndSplineSet
EndChar

StartChar: B
Encoding: 66 66 15
Width: 695
VWidth: 0
Flags: HMW
AnchorPoint: "ced" 327 0 basechar 0
AnchorPoint: "dot" 442.009 760 basechar 0
LayerCount: 2
Fore
SplineSet
413.705078125 418 m 1
 496.705078125 418 544.172851562 432 555.634765625 497 c 0
 567.095703125 562 525.26953125 580 442.26953125 580 c 1
 483.428710938 700 l 1
 612.428710938 700 709.262695312 631 685.634765625 497 c 0
 662.182617188 364 547.1875 330 418.1875 330 c 1
 413.705078125 418 l 1
203.428710938 700 m 1
 333.428710938 700 l 1
 210 0 l 1
 80 0 l 1
 203.428710938 700 l 1
121.159179688 120 m 1
 401.159179688 120 l 1
 400 0 l 1
 100 0 l 1
 121.159179688 120 l 1
223.428710938 700 m 1
 483.428710938 700 l 1
 442.26953125 580 l 1
 202.26953125 580 l 1
 223.428710938 700 l 1
173.705078125 418 m 1
 493.705078125 418 l 1
 432.545898438 298 l 1
 152.545898438 298 l 1
 173.705078125 418 l 1
401.159179688 120 m 1
 484.159179688 120 538.803710938 135 551.147460938 205 c 0
 563.490234375 275 515.545898438 298 432.545898438 298 c 1
 467.885742188 385 l 1
 596.885742188 385 705.65625 344 681.147460938 205 c 0
 656.637695312 66 539 0 400 0 c 1
 401.159179688 120 l 1
EndSplineSet
EndChar

StartChar: K
Encoding: 75 75 16
Width: 745
VWidth: 0
Flags: HMW
AnchorPoint: "ced" 655 0 basechar 0
AnchorPoint: "dot" 469.009 760 basechar 0
LayerCount: 2
Fore
SplineSet
338.823242188 413 m 1
 482.823242188 413 l 1
 740 0 l 1
 596 0 l 1
 338.823242188 413 l 1
668.428710938 700 m 1
 813.428710938 700 l 1
 246.5 207 l 5
 125.555664062 230 l 1
 668.428710938 700 l 1
203.428710938 700 m 1
 333.428710938 700 l 1
 210 0 l 1
 80 0 l 1
 203.428710938 700 l 1
EndSplineSet
EndChar

StartChar: R
Encoding: 82 82 17
Width: 718
VWidth: 0
Flags: HMW
AnchorPoint: "ced" 595 0 basechar 0
AnchorPoint: "dot" 479.009 760 basechar 0
LayerCount: 2
Fore
SplineSet
428.125 358 m 1
 516.125 358 582.120117188 392 595.344726562 467 c 0
 608.569335938 542 555.26953125 580 467.26953125 580 c 1
 508.428710938 700 l 1
 657.428710938 700 749.1484375 602 725.344726562 467 c 0
 701.716796875 333 575.965820312 238 426.965820312 238 c 1
 428.125 358 l 1
218.428710938 700 m 1
 348.428710938 700 l 1
 225 0 l 1
 95 0 l 1
 218.428710938 700 l 1
253.428710938 700 m 1
 508.428710938 700 l 1
 467.26953125 580 l 1
 232.26953125 580 l 1
 253.428710938 700 l 1
193.125 358 m 1
 428.125 358 l 1
 426.965820312 238 l 1
 171.965820312 238 l 1
 193.125 358 l 1
359.424804688 320 m 1
 504.424804688 320 l 1
 688 0 l 5
 543 0 l 5
 359.424804688 320 l 1
EndSplineSet
EndChar

StartChar: P
Encoding: 80 80 18
Width: 643
VWidth: 0
Flags: HMW
AnchorPoint: "ced" 145 0 basechar 0
AnchorPoint: "dot" 449.009 760 basechar 0
LayerCount: 2
Fore
SplineSet
398.125 358 m 5
 486.125 358 552.120117188 392 565.344726562 467 c 4
 578.569335938 542 525.26953125 580 437.26953125 580 c 5
 478.428710938 700 l 5
 627.428710938 700 719.1484375 602 695.344726562 467 c 0
 671.716796875 333 545.965820312 238 396.965820312 238 c 5
 398.125 358 l 5
208.428710938 700 m 1
 338.428710938 700 l 1
 215 0 l 1
 85 0 l 1
 208.428710938 700 l 1
223.428710938 700 m 1
 478.428710938 700 l 1
 437.26953125 580 l 5
 202.26953125 580 l 1
 223.428710938 700 l 1
163.125 358 m 1
 398.125 358 l 5
 396.965820312 238 l 1
 141.965820312 238 l 1
 163.125 358 l 1
EndSplineSet
EndChar

StartChar: Q
Encoding: 81 81 19
Width: 849
VWidth: 0
Flags: HMW
AnchorPoint: "ced" 425 0 basechar 0
AnchorPoint: "dot" 559.009 760 basechar 0
LayerCount: 2
Fore
SplineSet
727.241210938 -44 m 1
 506.497070312 224 l 1
 598.250976562 302 l 5
 819.171875 35 l 5
 727.241210938 -44 l 1
261.71484375 350 m 0
 237.734375 214 313.395507812 110 444.395507812 110 c 0
 575.395507812 110 687.734375 214 711.71484375 350 c 0
 735.6953125 486 660.033203125 590 529.033203125 590 c 0
 398.033203125 590 285.6953125 486 261.71484375 350 c 0
131.71484375 350 m 0
 166.803710938 549 355.192382812 710 550.192382812 710 c 0
 745.192382812 710 876.803710938 549 841.71484375 350 c 0
 806.625 151 618.236328125 -10 423.236328125 -10 c 0
 228.236328125 -10 96.625 151 131.71484375 350 c 0
EndSplineSet
EndChar

StartChar: J
Encoding: 74 74 20
Width: 599
VWidth: 0
Flags: HMW
AnchorPoint: "ced" 255 0 basechar 0
AnchorPoint: "dot" 379.009 760 basechar 0
LayerCount: 2
Fore
SplineSet
439.844726562 260 m 1
 517.428710938 700 l 1
 642.428710938 700 l 1
 564.844726562 260 l 1
 439.844726562 260 l 1
439.844726562 260 m 1
 564.844726562 260 l 1
 531.51953125 71 412.236328125 -10 253.236328125 -10 c 0
 145.236328125 -10 69.2294921875 41 37.68359375 157 c 1
 145.14453125 222 l 5
 165.509765625 139 214.514648438 105 273.514648438 105 c 0
 350.514648438 105 420.625 151 439.844726562 260 c 1
EndSplineSet
EndChar

StartChar: S
Encoding: 83 83 21
Width: 625
VWidth: 0
Flags: HMW
AnchorPoint: "ced" 315 0 basechar 0
AnchorPoint: "dot" 469.009 760 basechar 0
LayerCount: 2
Fore
SplineSet
475.265625 200 m 1
 599.383789062 195 l 1
 576.637695312 66 475.236328125 -10 326.236328125 -10 c 0
 197.236328125 -10 121.874023438 56 69.9248046875 113 c 1
 156.618164062 202 l 1
 196.859375 158 253.514648438 105 346.514648438 105 c 0
 429.514648438 105 466.44921875 150 475.265625 200 c 1
306.513671875 519 m 1
 179.75 509 l 5
 201.967773438 635 321.192382812 710 440.192382812 710 c 0
 539.192382812 710 614.844726562 674 657.67578125 622 c 1
 573.6875 537 l 1
 536.446289062 581 487.915039062 595 429.915039062 595 c 0
 351.915039062 595 313.038085938 556 306.513671875 519 c 1
404.939453125 425 m 0
 527.479492188 403.220703125 624.421875 337 599.383789062 195 c 1
 475.265625 200 l 1
 484.2578125 251 470.083984375 291.458007812 373.779296875 305 c 0
 253.346679688 321.934570312 157.356445312 382 179.75 509 c 5
 306.513671875 519 l 1
 298.579101562 474 309.87890625 441.895507812 404.939453125 425 c 0
EndSplineSet
EndChar

StartChar: M
Encoding: 77 77 22
Width: 932
VWidth: 0
Flags: HMW
AnchorPoint: "ced" 790 0 basechar 0
AnchorPoint: "dot" 604.009 760 basechar 0
LayerCount: 2
Fore
SplineSet
522.922851562 130 m 1
 454.922851562 130 l 1
 484.318359375 240 l 5
 532.318359375 240 l 5
 522.922851562 130 l 1
834.849609375 640 m 1
 855.428710938 700 l 1
 975.428710938 700 l 1
 971.90234375 680 l 1
 834.849609375 640 l 1
951.612304688 650 m 1
 522.922851562 130 l 1
 484.318359375 240 l 5
 855.428710938 700 l 1
 951.612304688 650 l 1
971.90234375 680 m 1
 852 0 l 1
 722 0 l 1
 834.849609375 640 l 1
 971.90234375 680 l 1
322.849609375 640 m 1
 199.90234375 680 l 1
 203.428710938 700 l 1
 323.428710938 700 l 1
 322.849609375 640 l 1
209.612304688 650 m 1
 323.428710938 700 l 1
 532.318359375 240 l 5
 454.922851562 130 l 1
 209.612304688 650 l 1
199.90234375 680 m 1
 322.849609375 640 l 1
 210 0 l 1
 80 0 l 1
 199.90234375 680 l 1
EndSplineSet
EndChar

StartChar: Y
Encoding: 89 89 23
Width: 680
VWidth: 0
Flags: HMW
AnchorPoint: "ced" 345 0 basechar 0
AnchorPoint: "dot" 471.009 760 basechar 0
LayerCount: 2
Fore
SplineSet
327.016601562 295 m 1
 457.016601562 295 l 1
 405 0 l 1
 275 0 l 1
 327.016601562 295 l 1
133.428710938 700 m 1
 273.428710938 700 l 1
 457.016601562 295 l 1
 353.262695312 217 l 1
 133.428710938 700 l 1
653.428710938 700 m 5
 793.428710938 700 l 1
 403.262695312 217 l 1
 327.016601562 295 l 1
 653.428710938 700 l 5
EndSplineSet
EndChar

StartChar: W
Encoding: 87 87 24
Width: 1065
VWidth: 0
Flags: HMW
AnchorPoint: "ced" 750 0 basechar 0
AnchorPoint: "dot" 664.009 760 basechar 0
LayerCount: 2
Fore
SplineSet
583.428710938 700 m 1
 728.428710938 700 l 5
 692.666015625 690 l 1
 615.666015625 690 l 1
 583.428710938 700 l 1
830 0 m 1
 710 0 l 1
 711.763671875 10 l 1
 831.763671875 10 l 1
 830 0 l 1
728.428710938 700 m 5
 831.763671875 10 l 1
 710 0 l 1
 615.666015625 690 l 1
 728.428710938 700 l 5
830 0 m 1
 711.763671875 10 l 1
 1043.42871094 700 l 1
 1173.42871094 700 l 1
 830 0 l 1
355 0 m 1
 235 0 l 1
 236.763671875 10 l 1
 356.763671875 10 l 1
 355 0 l 1
268.428710938 700 m 1
 356.763671875 10 l 1
 235 0 l 1
 138.428710938 700 l 1
 268.428710938 700 l 1
355 0 m 1
 236.763671875 10 l 1
 583.428710938 700 l 1
 692.666015625 690 l 1
 355 0 l 1
EndSplineSet
EndChar

StartChar: N
Encoding: 78 78 25
Width: 790
VWidth: 0
Flags: HMW
AnchorPoint: "ced" 650 0 basechar 0
AnchorPoint: "dot" 534.009 760 basechar 0
LayerCount: 2
Fore
SplineSet
710 0 m 1
 590 0 l 1
 594.231445312 24 l 1
 712.46875 14 l 1
 710 0 l 1
323.428710938 700 m 1
 319.90234375 680 l 1
 199.90234375 680 l 1
 203.428710938 700 l 1
 323.428710938 700 l 1
195.494140625 655 m 5
 323.428710938 700 l 1
 717.934570312 45 l 1
 590 0 l 1
 195.494140625 655 l 5
703.428710938 700 m 1
 833.428710938 700 l 1
 710 0 l 1
 583.526367188 20 l 1
 703.428710938 700 l 1
203.428710938 700 m 1
 329.90234375 680 l 1
 210 0 l 1
 80 0 l 1
 203.428710938 700 l 1
EndSplineSet
EndChar

StartChar: X
Encoding: 88 88 26
Width: 750
VWidth: 0
Flags: HMW
AnchorPoint: "ced" 635 0 basechar 0
AnchorPoint: "dot" 508.009 760 basechar 0
LayerCount: 2
Fore
SplineSet
168.428710938 700 m 1
 313.428710938 700 l 1
 725 0 l 1
 580 0 l 1
 168.428710938 700 l 1
683.428710938 700 m 1
 828.428710938 700 l 1
 170 0 l 1
 25 0 l 1
 683.428710938 700 l 1
EndSplineSet
EndChar

StartChar: Z
Encoding: 90 90 27
Width: 680
VWidth: 0
Flags: HMW
AnchorPoint: "ced" 495 0 basechar 0
AnchorPoint: "dot" 469.009 760 basechar 0
LayerCount: 2
Fore
SplineSet
699.033203125 590 m 1
 689.033203125 590 l 1
 708.428710938 700 l 1
 718.428710938 700 l 1
 699.033203125 590 l 1
84.3955078125 110 m 1
 94.3955078125 110 l 1
 75 0 l 1
 65 0 l 1
 84.3955078125 110 l 1
208.428710938 700 m 1
 708.428710938 700 l 1
 687.26953125 580 l 1
 187.26953125 580 l 1
 208.428710938 700 l 1
96.1591796875 120 m 1
 636.159179688 120 l 1
 615 0 l 1
 75 0 l 1
 96.1591796875 120 l 1
554.033203125 590 m 1
 699.033203125 590 l 1
 229.395507812 110 l 5
 84.3955078125 110 l 1
 554.033203125 590 l 1
EndSplineSet
EndChar

StartChar: l
Encoding: 108 108 28
Width: 265
VWidth: 0
Flags: HMW
AnchorPoint: "ced" 133 0 basechar 0
AnchorPoint: "dot" 272.827 793 basechar 0
LayerCount: 2
Fore
SplineSet
198.71875 730 m 1
 323.71875 730 l 1
 195 0 l 1
 70 0 l 1
 198.71875 730 l 1
EndSplineSet
EndChar

StartChar: b
Encoding: 98 98 29
Width: 655
VWidth: 0
Flags: HMW
AnchorPoint: "ced" 356 0 basechar 0
AnchorPoint: "dot" 478.668 673 basechar 0
LayerCount: 2
Fore
SplineSet
255.844726562 260 m 0
 238.388671875 161 286.514648438 105 363.514648438 105 c 0
 440.514648438 105 503.388671875 161 520.844726562 260 c 0
 538.301757812 359 495.17578125 415 418.17578125 415 c 0
 341.17578125 415 273.301757812 359 255.844726562 260 c 0
220.844726562 260 m 0
 247.118164062 409 299.453125 530 468.453125 530 c 0
 577.453125 530 673.880859375 419 645.844726562 260 c 0
 617.80859375 101 482.236328125 -10 373.236328125 -10 c 0
 214.236328125 -10 194.572265625 111 220.844726562 260 c 0
213.71875 730 m 1
 338.71875 730 l 1
 210 0 l 1
 85 0 l 1
 213.71875 730 l 1
EndSplineSet
EndChar

StartChar: c
Encoding: 99 99 30
Width: 573
VWidth: 0
Flags: HMW
AnchorPoint: "ced" 325 0 basechar 0
AnchorPoint: "dot" 443.668 673 basechar 0
LayerCount: 2
Fore
SplineSet
225.844726562 260 m 0
 210.15234375 171 256.514648438 105 343.514648438 105 c 0
 402.514648438 105 449.922851562 130 484.975585938 170 c 5
 549.221679688 92 l 1
 490.9375 28 410.236328125 -10 323.236328125 -10 c 0
 174.236328125 -10 74.572265625 111 100.844726562 260 c 0
 127.118164062 409 269.453125 530 418.453125 530 c 0
 505.453125 530 571.576171875 491 607.467773438 428 c 1
 516.71484375 350 l 5
 495.767578125 390 457.17578125 415 398.17578125 415 c 0
 311.17578125 415 241.538085938 349 225.844726562 260 c 0
EndSplineSet
EndChar

StartChar: d
Encoding: 100 100 31
Width: 655
VWidth: 0
Flags: HMW
AnchorPoint: "ced" 300 0 basechar 0
AnchorPoint: "dot" 413.668 673 basechar 0
LayerCount: 2
Fore
SplineSet
490.844726562 260 m 4
 508.301757812 359 460.17578125 415 383.17578125 415 c 4
 306.17578125 415 243.301757812 359 225.844726562 260 c 0
 208.388671875 161 251.514648438 105 328.514648438 105 c 0
 405.514648438 105 473.388671875 161 490.844726562 260 c 4
525.844726562 260 m 4
 499.572265625 111 447.236328125 -10 278.236328125 -10 c 4
 169.236328125 -10 72.80859375 101 100.844726562 260 c 0
 128.880859375 419 264.453125 530 373.453125 530 c 0
 542.453125 530 552.118164062 409 525.844726562 260 c 4
698.71875 730 m 1
 570 0 l 1
 445 0 l 1
 573.71875 730 l 1
 698.71875 730 l 1
EndSplineSet
EndChar

StartChar: k
Encoding: 107 107 32
Width: 615
VWidth: 0
Flags: HMW
AnchorPoint: "ced" 535 0 basechar 0
AnchorPoint: "dot" 463.668 673 basechar 0
LayerCount: 2
Fore
SplineSet
276.311523438 291 m 1
 404.837890625 311 l 1
 610 0 l 1
 472 0 l 1
 276.311523438 291 l 1
535.690429688 520 m 1
 681.690429688 520 l 1
 209.395507812 110 l 1
 117.154296875 154 l 1
 535.690429688 520 l 1
193.71875 730 m 1
 318.71875 730 l 1
 190 0 l 1
 65 0 l 1
 193.71875 730 l 1
EndSplineSet
EndChar

StartChar: e
Encoding: 101 101 33
Width: 615
VWidth: 0
Flags: HMW
AnchorPoint: "ced" 320 0 basechar 0
AnchorPoint: "dot" 428.668 673 basechar 0
LayerCount: 2
Fore
SplineSet
610.844726562 260 m 1
 605.555664062 230 l 1
 480.555664062 230 l 1
 485.844726562 260 l 1
 610.844726562 260 l 1
480.555664062 230 m 1
 174.555664062 230 l 1
 189.895507812 317 l 1
 495.895507812 317 l 1
 480.555664062 230 l 1
485.844726562 260 m 1
 503.301757812 359 480.17578125 415 393.17578125 415 c 0
 306.17578125 415 243.301757812 359 225.844726562 260 c 1
 100.844726562 260 l 1
 128.880859375 419 274.453125 530 413.453125 530 c 0
 552.453125 530 638.880859375 419 610.844726562 260 c 1
 485.844726562 260 l 1
100.844726562 260 m 1
 225.844726562 260 l 1
 208.388671875 161 251.514648438 105 330.514648438 105 c 4
 394.514648438 105 441.806640625 118 487.446289062 167 c 1
 554.221679688 92 l 1
 495.9375 28 405.236328125 -10 318.236328125 -10 c 0
 169.236328125 -10 72.80859375 101 100.844726562 260 c 1
EndSplineSet
EndChar

StartChar: p
Encoding: 112 112 34
Width: 655
VWidth: 0
Flags: HMW
AnchorPoint: "ced" 355 0 basechar 0
AnchorPoint: "dot" 478.668 673 basechar 0
LayerCount: 2
Fore
SplineSet
255.844726562 260 m 0
 238.388671875 161 286.514648438 105 363.514648438 105 c 0
 440.514648438 105 503.388671875 161 520.844726562 260 c 0
 538.301757812 359 495.17578125 415 418.17578125 415 c 4
 341.17578125 415 273.301757812 359 255.844726562 260 c 0
220.844726562 260 m 0
 247.118164062 409 299.453125 530 468.453125 530 c 0
 577.453125 530 673.880859375 419 645.844726562 260 c 0
 617.80859375 101 482.236328125 -10 373.236328125 -10 c 0
 204.236328125 -10 194.572265625 111 220.844726562 260 c 0
49.734375 -200 m 1
 176.690429688 520 l 1
 301.690429688 520 l 1
 174.734375 -200 l 1
 49.734375 -200 l 1
EndSplineSet
EndChar

StartChar: q
Encoding: 113 113 35
Width: 655
VWidth: 0
Flags: HMW
AnchorPoint: "ced" 300 0 basechar 0
AnchorPoint: "dot" 413.668 673 basechar 0
LayerCount: 2
Fore
SplineSet
490.844726562 260 m 0
 508.301757812 359 460.17578125 415 383.17578125 415 c 0
 306.17578125 415 243.301757812 359 225.844726562 260 c 0
 208.388671875 161 251.514648438 105 328.514648438 105 c 0
 405.514648438 105 473.388671875 161 490.844726562 260 c 0
525.844726562 260 m 0
 499.572265625 111 447.236328125 -10 278.236328125 -10 c 0
 169.236328125 -10 72.80859375 101 100.844726562 260 c 0
 128.880859375 419 264.453125 530 373.453125 530 c 0
 542.453125 530 552.118164062 409 525.844726562 260 c 0
534.734375 -200 m 1
 409.734375 -200 l 1
 536.690429688 520 l 1
 661.690429688 520 l 1
 534.734375 -200 l 1
EndSplineSet
EndChar

StartChar: h
Encoding: 104 104 36
Width: 635
VWidth: 0
Flags: HMW
AnchorPoint: "ced" 490 0 basechar 0
AnchorPoint: "dot" 468.668 673 basechar 0
LayerCount: 2
Fore
SplineSet
607.8984375 300 m 1
 555 0 l 1
 430 0 l 1
 482.8984375 300 l 1
 607.8984375 300 l 1
213.71875 730 m 1
 338.71875 730 l 1
 210 0 l 1
 85 0 l 1
 213.71875 730 l 1
482.8984375 300 m 5
 495.064453125 369 483.17578125 415 403.17578125 415 c 4
 324.17578125 415 275.241210938 370 259.37109375 280 c 5
 224.37109375 280 l 1
 248.880859375 419 304.453125 530 443.453125 530 c 0
 572.453125 530 630.64453125 429 607.8984375 300 c 1
 482.8984375 300 l 5
EndSplineSet
EndChar

StartChar: n
Encoding: 110 110 37
Width: 635
VWidth: 0
Flags: HMW
AnchorPoint: "ced" 520 0 basechar 0
AnchorPoint: "dot" 448.668 673 basechar 0
LayerCount: 2
Fore
SplineSet
607.8984375 300 m 5
 555 0 l 5
 430 0 l 5
 482.8984375 300 l 5
 607.8984375 300 l 5
176.690429688 520 m 5
 301.690429688 520 l 5
 210 0 l 5
 85 0 l 5
 176.690429688 520 l 5
482.8984375 300 m 5
 495.241210938 370 483.17578125 415 403.17578125 415 c 4
 325.17578125 415 275.241210938 370 259.37109375 280 c 5
 224.37109375 280 l 5
 248.880859375 419 304.453125 530 453.453125 530 c 4
 572.453125 530 630.64453125 429 607.8984375 300 c 5
 482.8984375 300 l 5
EndSplineSet
EndChar

StartChar: m
Encoding: 109 109 38
Width: 900
VWidth: 0
Flags: HMW
AnchorPoint: "ced" 795 0 basechar 0
AnchorPoint: "dot" 568.668 673 basechar 0
LayerCount: 2
Fore
SplineSet
907.8984375 300 m 1
 855 0 l 1
 730 0 l 1
 782.8984375 300 l 1
 907.8984375 300 l 1
782.8984375 300 m 1
 795.241210938 370 779.057617188 420 704.057617188 420 c 0
 641.057617188 420 584.00390625 380 566.37109375 280 c 1
 531.37109375 280 l 1
 555.880859375 419 609.453125 530 753.453125 530 c 4
 887.453125 530 930.64453125 429 907.8984375 300 c 1
 782.8984375 300 l 1
569.8984375 300 m 1
 517 0 l 1
 393 0 l 1
 445.8984375 300 l 1
 569.8984375 300 l 1
146.690429688 520 m 1
 271.690429688 520 l 1
 180 0 l 1
 55 0 l 1
 146.690429688 520 l 1
445.8984375 300 m 5
 458.241210938 370 444.057617188 420 369.057617188 420 c 0
 306.057617188 420 245.241210938 370 229.37109375 280 c 1
 194.37109375 280 l 1
 218.880859375 419 274.453125 530 418.453125 530 c 4
 562.453125 530 592.64453125 429 569.8984375 300 c 1
 445.8984375 300 l 5
EndSplineSet
EndChar

StartChar: r
Encoding: 114 114 39
Width: 410
VWidth: 0
Flags: HMW
AnchorPoint: "ced" 140 0 basechar 0
AnchorPoint: "dot" 328.668 673 basechar 0
LayerCount: 2
Fore
SplineSet
166.690429688 520 m 1
 291.690429688 520 l 1
 200 0 l 1
 75 0 l 1
 166.690429688 520 l 1
461.412109375 405 m 1
 441.412109375 405 l 2
 327.412109375 405 265.241210938 370 247.608398438 270 c 1
 212.608398438 270 l 1
 237.118164062 409 292.690429688 520 481.690429688 520 c 1
 461.412109375 405 l 1
EndSplineSet
EndChar

StartChar: u
Encoding: 117 117 40
Width: 635
VWidth: 0
Flags: HMW
AnchorPoint: "ced" 285 0 basechar 0
AnchorPoint: "dot" 423.668 673 basechar 0
LayerCount: 2
Fore
SplineSet
118.791992188 220 m 1
 171.690429688 520 l 1
 296.690429688 520 l 1
 243.791992188 220 l 1
 118.791992188 220 l 1
550 0 m 1
 425 0 l 1
 516.690429688 520 l 1
 641.690429688 520 l 1
 550 0 l 1
243.791992188 220 m 1
 231.44921875 150 243.514648438 105 323.514648438 105 c 0
 401.514648438 105 451.44921875 150 467.318359375 240 c 1
 502.318359375 240 l 1
 477.80859375 101 422.236328125 -10 273.236328125 -10 c 0
 154.236328125 -10 96.0458984375 91 118.791992188 220 c 1
 243.791992188 220 l 1
EndSplineSet
EndChar

StartChar: g
Encoding: 103 103 41
Width: 655
VWidth: 0
Flags: HMW
AnchorPoint: "dot" 418.668 673 basechar 0
LayerCount: 2
Fore
SplineSet
304.485351562 -105 m 1
 284.208007812 -220 l 1
 147.208007812 -220 73.671875 -172 37.95703125 -108 c 1
 135.594726562 -42 l 5
 168.8359375 -86 211.485351562 -105 304.485351562 -105 c 1
573.526367188 20 m 1
 448.526367188 20 l 1
 536.690429688 520 l 1
 661.690429688 520 l 1
 573.526367188 20 l 1
525.844726562 260 m 0
 499.572265625 111 447.236328125 -10 288.236328125 -10 c 0
 169.236328125 -10 72.80859375 101 100.844726562 260 c 0
 128.880859375 419 264.453125 530 383.453125 530 c 0
 542.453125 530 552.118164062 409 525.844726562 260 c 0
490.844726562 260 m 0
 508.301757812 359 460.17578125 415 383.17578125 415 c 0
 306.17578125 415 243.301757812 359 225.844726562 260 c 0
 208.388671875 161 251.514648438 105 328.514648438 105 c 0
 405.514648438 105 473.388671875 161 490.844726562 260 c 0
448.526367188 20 m 1
 573.526367188 20 l 1
 549.016601562 -119 413.208007812 -220 284.208007812 -220 c 1
 304.485351562 -105 l 1
 371.485351562 -105 432.833007812 -69 448.526367188 20 c 1
EndSplineSet
EndChar

StartChar: i
Encoding: 105 105 42
Width: 255
VWidth: 0
Flags: HMW
AnchorPoint: "ced" 125 0 basechar 0
LayerCount: 2
Fore
SplineSet
167.4921875 672 m 4
 175.07421875 715 216.245117188 750 259.245117188 750 c 4
 302.245117188 750 331.07421875 715 323.4921875 672 c 4
 315.91015625 629 274.73828125 594 231.73828125 594 c 4
 188.73828125 594 159.91015625 629 167.4921875 672 c 4
156.690429688 520 m 1
 281.690429688 520 l 1
 190 0 l 1
 65 0 l 1
 156.690429688 520 l 1
EndSplineSet
EndChar

StartChar: t
Encoding: 116 116 43
Width: 420
VWidth: 0
Flags: HMW
AnchorPoint: "ced" 267 0 basechar 0
AnchorPoint: "dot" 423.668 673 basechar 0
LayerCount: 2
Fore
SplineSet
121.690429688 520 m 1
 471.690429688 520 l 1
 451.412109375 405 l 1
 101.412109375 405 l 1
 121.690429688 520 l 1
253.211914062 160 m 1
 124.685546875 140 l 1
 218.66796875 673 l 1
 343.66796875 673 l 1
 253.211914062 160 l 1
292.514648438 105 m 1
 326.514648438 105 344.454101562 116 357.922851562 130 c 5
 409.405273438 42 l 1
 377.291992188 13 328.236328125 -10 266.236328125 -10 c 1
 292.514648438 105 l 1
253.211914062 160 m 1
 247.922851562 130 254.514648438 105 292.514648438 105 c 1
 266.236328125 -10 l 1
 167.236328125 -10 110.755859375 61 124.685546875 140 c 1
 253.211914062 160 l 1
EndSplineSet
EndChar

StartChar: a
Encoding: 97 97 44
Width: 580
VWidth: 0
Flags: HMW
AnchorPoint: "ced" 435 0 basechar 0
AnchorPoint: "ring" 393.668 673 basechar 0
AnchorPoint: "dot" 393.668 673 basechar 0
LayerCount: 2
Fore
SplineSet
363.250976562 302 m 1
 493.250976562 302 l 1
 478.439453125 218 l 1
 378.439453125 218 l 1
 363.250976562 302 l 1
448.1875 330 m 1
 459.649414062 395 427.17578125 415 361.17578125 415 c 1
 377.453125 530 l 1
 520.453125 530 595.052734375 454 573.1875 330 c 1
 448.1875 330 l 1
361.17578125 415 m 1
 307.17578125 415 255.883789062 402 211.59375 372 c 1
 149.346679688 450 l 1
 214.987304688 499 275.453125 530 377.453125 530 c 1
 361.17578125 415 l 1
448.1875 330 m 1
 573.1875 330 l 1
 515 0 l 1
 390 0 l 1
 448.1875 330 l 1
185.331054688 155 m 1
 178.629882812 117 213.750976562 95 276.750976562 95 c 0
 334.750976562 95 411.159179688 120 425.265625 200 c 5
 456.739257812 180 l 1
 437.51953125 71 367.236328125 -10 228.236328125 -10 c 0
 129.236328125 -10 40.2294921875 41 59.44921875 150 c 1
 185.331054688 155 l 1
363.250976562 302 m 1
 378.439453125 218 l 1
 269.439453125 218 195.028320312 210 185.331054688 155 c 1
 59.44921875 150 l 1
 83.2529296875 285 226.250976562 302 363.250976562 302 c 1
EndSplineSet
EndChar

StartChar: j
Encoding: 106 106 45
Width: 255
VWidth: 0
Flags: HMW
LayerCount: 2
Fore
SplineSet
167.4921875 672 m 0
 175.07421875 715 216.245117188 750 259.245117188 750 c 0
 302.245117188 750 331.07421875 715 323.4921875 672 c 0
 315.91015625 629 274.73828125 594 231.73828125 594 c 0
 188.73828125 594 159.91015625 629 167.4921875 672 c 0
156.690429688 520 m 1
 281.690429688 520 l 1
 179.419921875 -60 l 1
 57.947265625 -40 l 1
 156.690429688 520 l 1
-4.7509765625 -95 m 5
 -19.0283203125 -210 l 1
 -76.0283203125 -210 -122.854492188 -192 -143.859375 -158 c 1
 -67.8134765625 -67 l 1
 -54.1640625 -86 -37.7509765625 -95 -4.7509765625 -95 c 5
57.947265625 -40 m 1
 179.419921875 -60 l 1
 165.490234375 -139 69.9716796875 -210 -19.0283203125 -210 c 1
 -4.7509765625 -95 l 5
 22.2490234375 -95 50.8935546875 -80 57.947265625 -40 c 1
EndSplineSet
EndChar

StartChar: s
Encoding: 115 115 46
Width: 520
VWidth: 0
Flags: HMW
AnchorPoint: "ced" 265 0 basechar 0
AnchorPoint: "dot" 383.668 673 basechar 0
LayerCount: 2
Fore
SplineSet
386.44921875 150 m 1
 501.801757812 152 l 1
 486.108398438 63 412.236328125 -10 273.236328125 -10 c 0
 164.236328125 -10 106.524414062 37 63.337890625 104 c 1
 169.385742188 178 l 1
 206.5703125 128 235.514648438 105 298.514648438 105 c 4
 354.514648438 105 382.041015625 125 386.44921875 150 c 1
261.651367188 378 m 1
 134.711914062 367 l 1
 149.875976562 453 239.453125 530 348.453125 530 c 0
 457.453125 530 503.458007812 496 536.994140625 448 c 1
 451.241210938 370 l 1
 424.883789062 402 397.057617188 420 339.057617188 420 c 0
 291.057617188 420 265.001953125 397 261.651367188 378 c 1
337.659179688 327 m 0
 452.155273438 310.583007812 522.9609375 272 501.801757812 152 c 1
 386.44921875 150 l 1
 391.209960938 177 384.170898438 201.76171875 288.086914062 216 c 0
 187.301757812 230.934570312 117.431640625 269 134.711914062 367 c 1
 261.651367188 378 l 1
 258.125 358 261.85546875 337.869140625 337.659179688 327 c 0
EndSplineSet
EndChar

StartChar: v
Encoding: 118 118 47
Width: 590
VWidth: 0
Flags: HMW
AnchorPoint: "ced" 287 0 basechar 0
AnchorPoint: "dot" 391.668 673 basechar 0
LayerCount: 2
Fore
SplineSet
355 0 m 1
 235 0 l 1
 235.881835938 5 l 1
 355.881835938 5 l 1
 355 0 l 1
235.881835938 5 m 1
 536.690429688 520 l 5
 666.690429688 520 l 1
 355 0 l 1
 235.881835938 5 l 1
106.690429688 520 m 1
 236.690429688 520 l 1
 355.881835938 5 l 1
 235 0 l 1
 106.690429688 520 l 1
EndSplineSet
EndChar

StartChar: f
Encoding: 102 102 48
Width: 375
VWidth: 0
Flags: HMW
AnchorPoint: "ced" 160 0 basechar 0
LayerCount: 2
Fore
SplineSet
121.690429688 520 m 5
 454.690429688 520 l 5
 434.412109375 405 l 5
 101.412109375 405 l 5
 121.690429688 520 l 5
325.506835938 570 m 5
 225 0 l 5
 100 0 l 5
 204.033203125 590 l 5
 325.506835938 570 l 5
393.204101562 625 m 5
 397.482421875 740 l 5
 459.482421875 740 500.602539062 718 521.3125 688 c 5
 447.030273438 607 l 5
 436.44140625 615 422.204101562 625 393.204101562 625 c 5
325.506835938 570 m 5
 204.033203125 590 l 5
 217.962890625 669 308.482421875 740 397.482421875 740 c 5
 393.204101562 625 l 5
 358.204101562 625 330.620117188 599 325.506835938 570 c 5
EndSplineSet
Substitution2: "fi-1" fi
EndChar

StartChar: y
Encoding: 121 121 49
Width: 579
VWidth: 0
Flags: HMW
AnchorPoint: "dot" 423.668 673 basechar 0
LayerCount: 2
Fore
SplineSet
120.690429688 520 m 1
 250.690429688 520 l 1
 384.881835938 5 l 1
 259 0 l 1
 120.690429688 520 l 1
156.249023438 -95 m 5
 141.971679688 -210 l 1
 84.9716796875 -210 39.5556640625 -184 18.55078125 -150 c 1
 86.0673828125 -62 l 1
 99.7177734375 -81 117.249023438 -95 156.249023438 -95 c 5
238.004882812 -34 m 2
 540.690429688 520 l 1
 665.690429688 520 l 1
 348.419921875 -60 l 2
 304.900390625 -139.55859375 230.971679688 -210 141.971679688 -210 c 1
 156.249023438 -95 l 5
 193.249023438 -95 216.095703125 -74.05078125 238.004882812 -34 c 2
EndSplineSet
EndChar

StartChar: w
Encoding: 119 119 50
Width: 795
VWidth: 0
Flags: HMW
AnchorPoint: "ced" 565 0 basechar 0
AnchorPoint: "dot" 526.668 673 basechar 0
LayerCount: 2
Fore
SplineSet
446.690429688 520 m 1
 551.690429688 520 l 1
 542.874023438 470 l 1
 437.874023438 470 l 1
 446.690429688 520 l 1
645 0 m 1
 510 0 l 5
 510.881835938 5 l 5
 629.408203125 25 l 5
 645 0 l 1
540.881835938 5 m 1
 751.690429688 520 l 1
 876.690429688 520 l 1
 645 0 l 1
 540.881835938 5 l 1
447.874023438 470 m 1
 551.690429688 520 l 1
 619.408203125 25 l 5
 510 0 l 5
 447.874023438 470 l 1
305 0 m 1
 170 0 l 1
 174.408203125 25 l 1
 305.881835938 5 l 1
 305 0 l 1
204.408203125 25 m 1
 446.690429688 520 l 1
 532.874023438 470 l 1
 305 0 l 1
 204.408203125 25 l 1
121.690429688 520 m 1
 246.690429688 520 l 1
 275.881835938 5 l 1
 170 0 l 1
 121.690429688 520 l 1
EndSplineSet
EndChar

StartChar: x
Encoding: 120 120 51
Width: 615
VWidth: 0
Flags: HMW
AnchorPoint: "ced" 510 0 basechar 0
AnchorPoint: "dot" 398.668 673 basechar 0
LayerCount: 2
Fore
SplineSet
15 0 m 1
 521.690429688 520 l 1
 671.690429688 520 l 5
 165 0 l 5
 15 0 l 1
126.690429688 520 m 1
 276.690429688 520 l 5
 600 0 l 5
 450 0 l 1
 126.690429688 520 l 1
EndSplineSet
EndChar

StartChar: z
Encoding: 122 122 52
Width: 570
VWidth: 0
Flags: HMW
AnchorPoint: "ced" 445 0 basechar 0
AnchorPoint: "dot" 408.668 673 basechar 0
LayerCount: 2
Fore
SplineSet
73.5146484375 105 m 1
 93.5146484375 105 l 1
 75 0 l 1
 55 0 l 1
 73.5146484375 105 l 1
95.27734375 115 m 1
 535.27734375 115 l 1
 515 0 l 1
 75 0 l 1
 95.27734375 115 l 1
576.690429688 520 m 1
 596.690429688 520 l 1
 578.17578125 415 l 1
 558.17578125 415 l 1
 576.690429688 520 l 1
166.690429688 520 m 1
 576.690429688 520 l 1
 556.412109375 405 l 1
 146.412109375 405 l 1
 166.690429688 520 l 1
423.17578125 415 m 1
 578.17578125 415 l 1
 228.514648438 105 l 5
 73.5146484375 105 l 1
 423.17578125 415 l 1
EndSplineSet
EndChar

StartChar: zero
Encoding: 48 48 53
Width: 600
VWidth: 0
Flags: HMW
LayerCount: 2
Fore
SplineSet
206.71484375 350 m 4
 182.557617188 213 207.395507812 110 319.395507812 110 c 0
 431.395507812 110 492.557617188 213 516.71484375 350 c 4
 540.87109375 487 516.033203125 590 404.033203125 590 c 0
 292.033203125 590 230.87109375 487 206.71484375 350 c 4
76.71484375 350 m 0
 111.803710938 549 250.192382812 710 425.192382812 710 c 0
 600.192382812 710 681.803710938 549 646.71484375 350 c 0
 611.625 151 473.236328125 -10 298.236328125 -10 c 0
 123.236328125 -10 41.625 151 76.71484375 350 c 0
EndSplineSet
EndChar

StartChar: one
Encoding: 49 49 54
Width: 600
VWidth: 0
Flags: HMW
LayerCount: 2
Fore
SplineSet
553.428710938 700 m 1
 549.197265625 676 l 1
 429.197265625 676 l 1
 433.428710938 700 l 1
 553.428710938 700 l 1
433.428710938 700 m 1
 497.854492188 606 l 5
 239.641601562 446 l 5
 195.216796875 540 l 1
 433.428710938 700 l 1
421.666015625 690 m 1
 553.428710938 700 l 1
 430 0 l 1
 300 0 l 1
 421.666015625 690 l 1
EndSplineSet
EndChar

StartChar: six
Encoding: 54 54 55
Width: 600
VWidth: 0
Flags: HMW
LayerCount: 2
Fore
SplineSet
208.791992188 220 m 1
 153.791992188 220 l 1
 176.538085938 349 309.465820312 445 438.465820312 445 c 5
 359.951171875 340 l 1
 271.951171875 340 221.134765625 290 208.791992188 220 c 1
208.791992188 220 m 0
 196.44921875 150 229.6328125 100 317.6328125 100 c 0
 405.6328125 100 456.44921875 150 468.791992188 220 c 0
 481.134765625 290 447.951171875 340 359.951171875 340 c 1
 438.465820312 445 l 1
 537.465820312 445 611.538085938 349 588.791992188 220 c 0
 566.045898438 91 447.236328125 -10 298.236328125 -10 c 0
 149.236328125 -10 66.0458984375 91 88.7919921875 220 c 0
 98.8896484375 277.265625 131.625 327.206054688 174.475585938 377 c 2
 452.428710938 700 l 1
 592.428710938 700 l 1
 269.560546875 351.75390625 l 1
 245.991210938 344.909179688 l 1
 202.344726562 315.858398438 217.813476562 271.161132812 208.791992188 220 c 0
EndSplineSet
EndChar

StartChar: period
Encoding: 46 46 56
Width: 230
VWidth: 0
Flags: HMW
LayerCount: 2
Fore
SplineSet
30 75 m 4
 30 122 68 160 115 160 c 4
 162 160 200 122 200 75 c 4
 200 28 162 -10 115 -10 c 4
 68 -10 30 28 30 75 c 4
EndSplineSet
EndChar

StartChar: comma
Encoding: 44 44 58
Width: 254
VWidth: 0
Flags: HMW
LayerCount: 2
Fore
SplineSet
53.224609375 75 m 0
 61.51171875 122 106.211914062 160 153.211914062 160 c 0
 210.211914062 160 236.51171875 122 228.224609375 75 c 0
 224.817382812 55.6748046875 209.991210938 28.1279296875 189.37890625 3.60546875 c 2
 77.0771484375 -130 l 1
 7.0771484375 -130 l 1
 83.462890625 0.884765625 l 1
 60.1650390625 15.447265625 47.6103515625 43.158203125 53.224609375 75 c 0
EndSplineSet
EndChar

StartChar: two
Encoding: 50 50 60
Width: 600
VWidth: 0
Flags: HMW
LayerCount: 2
Fore
SplineSet
68.5146484375 105 m 1
 88.5146484375 105 l 1
 70 0 l 1
 50 0 l 1
 68.5146484375 105 l 1
492.810546875 498 m 1
 501.451171875 547 473.915039062 595 399.915039062 595 c 0
 330.915039062 595 279.745117188 543 230.110351562 460 c 1
 142.21875 523 l 1
 202.91015625 629 302.192382812 710 420.192382812 710 c 0
 559.192382812 710 638.44140625 615 617.458007812 496 c 1
 492.810546875 498 l 1
70 0 m 1
 90.27734375 115 l 1
 570.27734375 115 l 1
 550 0 l 1
 70 0 l 1
442.021484375 261 m 6
 236.514648438 105 l 5
 68.5146484375 105 l 1
 341.661132812 310 l 2
 455.868164062 395.713867188 480.291992188 427 492.810546875 498 c 1
 617.458007812 496 l 1
 599.825195312 396 564.068359375 351.017578125 442.021484375 261 c 6
EndSplineSet
EndChar

StartChar: three
Encoding: 51 51 62
Width: 600
VWidth: 0
Flags: HMW
LayerCount: 2
Fore
SplineSet
321.236328125 404 m 1
 508.236328125 404 611.185546875 347 584.736328125 197 c 0
 560.05078125 57 425.236328125 -10 298.236328125 -10 c 0
 208.236328125 -10 118.46875 14 67.4560546875 99 c 1
 160.209960938 177 l 1
 191.51171875 122 250.337890625 104 318.337890625 104 c 0
 391.337890625 104 447.5703125 128 459.736328125 197 c 0
 471.903320312 266 427.661132812 310 304.661132812 310 c 1
 321.236328125 404 l 1
181.1484375 602 m 1
 240.375976562 660 311.192382812 710 425.192382812 710 c 0
 559.192382812 710 630.91015625 629 613.453125 530 c 0
 592.470703125 411 482.1875 330 308.1875 330 c 1
 324.939453125 425 l 1
 444.939453125 425 478.2265625 472 486.690429688 520 c 0
 495.153320312 568 474.915039062 595 404.915039062 595 c 4
 349.915039062 595 296.859375 572 248.395507812 524 c 1
 181.1484375 602 l 1
EndSplineSet
EndChar

StartChar: eight
Encoding: 56 56 63
Width: 600
VWidth: 0
Flags: HMW
LayerCount: 2
Fore
SplineSet
294.926757812 510 m 0
 286.462890625 462 314.939453125 425 374.939453125 425 c 0
 434.939453125 425 476.462890625 462 484.926757812 510 c 0
 493.390625 558 464.915039062 595 404.915039062 595 c 0
 344.915039062 595 303.390625 558 294.926757812 510 c 0
173.453125 530 m 0
 190.91015625 629 301.192382812 710 425.192382812 710 c 0
 549.192382812 710 630.91015625 629 613.453125 530 c 0
 592.470703125 411 483.951171875 340 359.951171875 340 c 0
 235.951171875 340 152.470703125 411 173.453125 530 c 0
82.9736328125 187 m 0
 107.659179688 327 232.47265625 394 369.47265625 394 c 0
 506.47265625 394 607.659179688 327 582.973632812 187 c 0
 561.813476562 67 435.236328125 -10 298.236328125 -10 c 0
 161.236328125 -10 61.8134765625 67 82.9736328125 187 c 0
211.5 207 m 0
 199.333007812 138 245.337890625 104 318.337890625 104 c 0
 391.337890625 104 449.333007812 138 461.5 207 c 0
 473.666015625 276 427.661132812 310 354.661132812 310 c 0
 281.661132812 310 223.666015625 276 211.5 207 c 0
EndSplineSet
EndChar

StartChar: four
Encoding: 52 52 64
Width: 600
VWidth: 0
Flags: HMW
LayerCount: 2
Fore
SplineSet
82.318359375 240 m 1
 102.318359375 240 l 5
 82.041015625 125 l 1
 62.041015625 125 l 1
 82.318359375 240 l 1
102.318359375 240 m 1
 592.318359375 240 l 1
 572.041015625 125 l 1
 82.041015625 125 l 1
 102.318359375 240 l 1
603.428710938 700 m 1
 599.197265625 676 l 1
 464.197265625 676 l 1
 468.428710938 700 l 1
 603.428710938 700 l 1
468.428710938 700 m 1
 556.19921875 659 l 1
 183.791992188 220 l 1
 82.318359375 240 l 1
 468.428710938 700 l 1
474.90234375 680 m 1
 603.428710938 700 l 1
 480 0 l 1
 355 0 l 1
 474.90234375 680 l 1
EndSplineSet
EndChar

StartChar: five
Encoding: 53 53 65
Width: 600
VWidth: 0
Flags: HMW
LayerCount: 2
Fore
SplineSet
124.837890625 311 m 1
 141.008789062 346 l 1
 211.008789062 346 l 1
 254.837890625 311 l 1
 124.837890625 311 l 1
420.228515625 455 m 1
 527.228515625 455 613.477539062 360 588.791992188 220 c 0
 562.342773438 70 425.236328125 -10 298.236328125 -10 c 0
 208.236328125 -10 118.46875 14 67.4560546875 99 c 1
 167.091796875 182 l 1
 198.393554688 127 255.690429688 106 318.690429688 106 c 0
 381.690429688 106 449.862304688 141 463.791992188 220 c 0
 475.958984375 289 452.951171875 340 359.951171875 340 c 1
 420.228515625 455 l 1
124.837890625 311 m 1
 253.428710938 700 l 1
 368.428710938 700 l 1
 255.127929688 341 l 1
 124.837890625 311 l 1
253.428710938 700 m 1
 633.428710938 700 l 1
 613.151367188 585 l 1
 233.151367188 585 l 1
 253.428710938 700 l 1
359.951171875 340 m 1
 302.951171875 340 270.77734375 322 254.837890625 311 c 5
 194.837890625 311 l 1
 240.53125 400 281.228515625 455 420.228515625 455 c 1
 359.951171875 340 l 1
EndSplineSet
EndChar

StartChar: seven
Encoding: 55 55 66
Width: 600
VWidth: 0
Flags: HMW
LayerCount: 2
Fore
SplineSet
656.795898438 600 m 1
 281 0 l 5
 154 0 l 5
 529.795898438 600 l 1
 656.795898438 600 l 1
653.428710938 700 m 1
 674.428710938 700 l 1
 656.795898438 600 l 1
 635.795898438 600 l 1
 653.428710938 700 l 1
173.428710938 700 m 1
 653.428710938 700 l 1
 633.151367188 585 l 1
 153.151367188 585 l 1
 173.428710938 700 l 1
EndSplineSet
EndChar

StartChar: exclam
Encoding: 33 33 67
Width: 230
VWidth: 0
Flags: HMW
LayerCount: 2
Fore
SplineSet
132.400390625 490 m 1
 270.400390625 490 l 1
 201.08203125 250 l 1
 117.08203125 250 l 1
 132.400390625 490 l 1
174.71875 730 m 1
 312.71875 730 l 1
 270.400390625 490 l 1
 132.400390625 490 l 1
 174.71875 730 l 1
EndSplineSet
Refer: 56 46 N 1 0 0.176327 1 0 0 2
EndChar

StartChar: quotesingle
Encoding: 39 39 69
Width: 170
VWidth: 0
Flags: HMW
LayerCount: 2
Fore
SplineSet
115.494140625 655 m 0
 123.78125 702 168.482421875 740 215.482421875 740 c 0
 262.482421875 740 293.78125 702 285.494140625 655 c 0
 283.907226562 646 281.444335938 634.483398438 276.028320312 624 c 6
 201.63671875 480 l 1
 137.63671875 480 l 1
 114.028320312 624 l 6
 112.309570312 634.483398438 113.907226562 646 115.494140625 655 c 0
EndSplineSet
EndChar

StartChar: numbersign
Encoding: 35 35 70
Width: 810
VWidth: 0
Flags: HMW
LayerCount: 2
Fore
SplineSet
777.608398438 270 m 5
 757.331054688 155 l 5
 67.3310546875 155 l 5
 87.6083984375 270 l 5
 777.608398438 270 l 5
866.098632812 545 m 1
 845.8203125 430 l 1
 155.8203125 430 l 1
 176.098632812 545 l 1
 866.098632812 545 l 1
668.428710938 700 m 1
 788.428710938 700 l 1
 545 0 l 1
 425 0 l 1
 668.428710938 700 l 1
388.428710938 700 m 1
 508.428710938 700 l 1
 265 0 l 1
 145 0 l 1
 388.428710938 700 l 1
EndSplineSet
EndChar

StartChar: percent
Encoding: 37 37 71
Width: 940
VWidth: 0
Flags: HMW
LayerCount: 2
Fore
SplineSet
671.739257812 180 m 0
 663.098632812 131 690.750976562 95 736.750976562 95 c 0
 782.750976562 95 823.098632812 131 831.739257812 180 c 0
 840.37890625 229 812.7265625 265 766.7265625 265 c 0
 720.7265625 265 680.37890625 229 671.739257812 180 c 0
231.690429688 520 m 0
 223.049804688 471 250.702148438 435 296.702148438 435 c 0
 342.702148438 435 383.049804688 471 391.690429688 520 c 0
 400.330078125 569 372.677734375 605 326.677734375 605 c 0
 280.677734375 605 240.330078125 569 231.690429688 520 c 0
121.690429688 520 m 0
 140.204101562 625 240.192382812 710 345.192382812 710 c 0
 450.192382812 710 520.204101562 625 501.690429688 520 c 0
 483.17578125 415 383.1875 330 278.1875 330 c 0
 173.1875 330 103.17578125 415 121.690429688 520 c 0
561.739257812 180 m 0
 580.252929688 285 680.241210938 370 785.241210938 370 c 0
 890.241210938 370 960.252929688 285 941.739257812 180 c 0
 923.224609375 75 823.236328125 -10 718.236328125 -10 c 0
 613.236328125 -10 543.224609375 75 561.739257812 180 c 0
773.428710938 700 m 1
 893.428710938 700 l 1
 290 0 l 1
 170 0 l 1
 773.428710938 700 l 1
EndSplineSet
EndChar

StartChar: dollar
Encoding: 36 36 72
Width: 600
VWidth: 0
Flags: HMW
LayerCount: 2
Fore
SplineSet
421 780 m 5
 491 780 l 5
 351 -80 l 1
 281 -80 l 1
 421 780 l 5
EndSplineSet
Refer: 21 83 N 1 0 0 1 -10 0 2
EndChar

StartChar: asterisk
Encoding: 42 42 73
Width: 324
VWidth: 0
Flags: HMW
LayerCount: 2
Fore
SplineSet
133.754882812 475 m 1
 109.334960938 535 l 1
 394.784179688 685 l 1
 419.204101562 625 l 1
 133.754882812 475 l 1
125.204101562 625 m 1
 170.784179688 685 l 1
 403.334960938 535 l 1
 357.754882812 475 l 1
 125.204101562 625 l 1
255.71875 730 m 1
 325.71875 730 l 1
 272.8203125 430 l 1
 202.8203125 430 l 1
 255.71875 730 l 1
EndSplineSet
EndChar

StartChar: slash
Encoding: 47 47 74
Width: 430
VWidth: 0
Flags: HMW
LayerCount: 2
Fore
SplineSet
477.53515625 780 m 1
 587.53515625 780 l 1
 75.8935546875 -80 l 5
 -34.1064453125 -80 l 1
 477.53515625 780 l 1
EndSplineSet
EndChar

StartChar: ampersand
Encoding: 38 38 75
Width: 715
VWidth: 0
Flags: HMW
LayerCount: 2
Fore
SplineSet
376.059570312 403 m 0
 456.517578125 423.8046875 491.400390625 490 498.453125 530 c 1
 618.453125 530 l 1
 601.702148438 435 490.508789062 357.01171875 394.069335938 335 c 0
 292.2421875 311.758789062 238.313476562 274 225.265625 200 c 5
 103.501953125 190 l 1
 128.1875 330 265.377929688 374.379882812 376.059570312 403 c 0
360.216796875 540 m 1
 240.216796875 540 l 1
 259.436523438 649 351.192382812 710 460.192382812 710 c 0
 569.192382812 710 639.436523438 649 618.453125 530 c 1
 498.453125 530 l 1
 507.09375 579 483.677734375 605 441.677734375 605 c 4
 404.677734375 605 367.974609375 584 360.216796875 540 c 1
331.311523438 291 m 2
 261.967773438 395.72265625 226.110351562 460 240.216796875 540 c 1
 360.216796875 540 l 1
 352.987304688 499 374.432617188 437.349609375 439.774414062 339 c 2
 665 0 l 1
 525 0 l 1
 331.311523438 291 l 2
612.01171875 329 m 1
 700.077148438 284 l 1
 640.27734375 115 487.236328125 -10 318.236328125 -10 c 0
 169.236328125 -10 82.51953125 71 103.501953125 190 c 1
 225.265625 200 l 5
 214.862304688 141 261.514648438 105 348.514648438 105 c 0
 455.514648438 105 555.739257812 180 612.01171875 329 c 1
EndSplineSet
EndChar

StartChar: parenleft
Encoding: 40 40 76
Width: 275
VWidth: 0
Flags: HMW
LayerCount: 2
Fore
SplineSet
302.245117188 750 m 1
 393.428710938 700 l 1
 187.583984375 440 125.869140625 90 240.024414062 -170 c 5
 131.208007812 -220 l 1
 -14.130859375 90 47.583984375 440 302.245117188 750 c 1
EndSplineSet
EndChar

StartChar: hyphen
Encoding: 45 45 78
Width: 430
VWidth: 0
Flags: HMW
LayerCount: 2
Fore
SplineSet
127.595703125 355 m 5
 427.595703125 355 l 5
 407.318359375 240 l 1
 107.318359375 240 l 1
 127.595703125 355 l 5
EndSplineSet
EndChar

StartChar: plus
Encoding: 43 43 79
Width: 510
VWidth: 0
Flags: HMW
LayerCount: 2
Fore
SplineSet
418.856445312 589 m 5
 338.627929688 134 l 5
 218.627929688 134 l 1
 298.856445312 589 l 1
 418.856445312 589 l 5
103.880859375 419 m 1
 553.880859375 419 l 1
 533.603515625 304 l 1
 83.603515625 304 l 1
 103.880859375 419 l 1
EndSplineSet
EndChar

StartChar: equal
Encoding: 61 61 80
Width: 510
VWidth: 0
Flags: HMW
LayerCount: 2
Fore
SplineSet
82.0166015625 295 m 1
 532.016601562 295 l 1
 511.739257812 180 l 1
 61.7392578125 180 l 1
 82.0166015625 295 l 1
123.453125 530 m 5
 573.453125 530 l 5
 553.17578125 415 l 1
 103.17578125 415 l 1
 123.453125 530 l 5
EndSplineSet
EndChar

StartChar: backslash
Encoding: 92 92 81
Width: 430
VWidth: 0
Flags: HMW
LayerCount: 2
Fore
SplineSet
227.53515625 780 m 1
 435.893554688 -80 l 1
 325.893554688 -80 l 5
 117.53515625 780 l 1
 227.53515625 780 l 1
EndSplineSet
EndChar

StartChar: less
Encoding: 60 60 82
Width: 510
VWidth: 0
Flags: HMW
LayerCount: 2
Fore
SplineSet
103.17578125 415 m 5
 519.673828125 225 l 5
 499.395507812 110 l 5
 82.8984375 300 l 5
 103.17578125 415 l 5
103.17578125 415 m 5
 586.677734375 605 l 5
 566.400390625 490 l 5
 82.8984375 300 l 5
 103.17578125 415 l 5
EndSplineSet
EndChar

StartChar: question
Encoding: 63 63 84
Width: 555
VWidth: 0
Flags: HMW
LayerCount: 2
Fore
SplineSet
398.700195312 452 m 0
 459.373046875 480.341796875 474.57421875 508 481.274414062 546 c 1
 608.038085938 556 l 1
 591.287109375 461 550.737304688 411.75 465.946289062 374 c 0
 402.177734375 345.609375 383.364257812 331 369.08203125 250 c 1
 249.08203125 250 l 1
 255.53125 400 323.27734375 416.768554688 398.700195312 452 c 0
481.274414062 546 m 1
 488.680664062 588 458.204101562 625 389.204101562 625 c 0
 316.204101562 625 271.033203125 590 224.924804688 527 c 1
 144.561523438 593 l 1
 201.725585938 679 292.482421875 740 415.482421875 740 c 0
 559.482421875 740 625.494140625 655 608.038085938 556 c 1
 481.274414062 546 l 1
EndSplineSet
Refer: 56 46 N 1 0 0.176327 1 157 0 2
EndChar

StartChar: at
Encoding: 64 64 85
Width: 1050
VWidth: 0
Flags: HMW
LayerCount: 2
Fore
SplineSet
705.844726562 260 m 0
 723.301757812 359 675.17578125 415 598.17578125 415 c 0
 521.17578125 415 453.301757812 359 435.844726562 260 c 0
 418.388671875 161 466.514648438 105 543.514648438 105 c 0
 620.514648438 105 688.388671875 161 705.844726562 260 c 0
740.844726562 260 m 0
 714.572265625 111 662.236328125 -10 503.236328125 -10 c 0
 384.236328125 -10 287.80859375 101 315.844726562 260 c 0
 343.880859375 419 479.453125 530 598.453125 530 c 0
 757.453125 530 767.118164062 409 740.844726562 260 c 0
871.690429688 520 m 1
 801.159179688 120 l 1
 677.6328125 100 l 1
 751.690429688 520 l 1
 871.690429688 520 l 1
100.844726562 260 m 0
 146.513671875 519 374.71875 730 653.71875 730 c 0
 912.71875 730 1093.56640625 559 1047.8984375 300 c 0
 1006.22167969 63.638671875 871.954101562 -10.2880859375 796.052734375 -10.2880859375 c 0
 701.979492188 -10.2880859375 667.6171875 43.19921875 677.6328125 100 c 1
 801.159179688 120 l 1
 790.673828125 60.53515625 796.6875 32.859375 833.172851562 32.859375 c 0
 884.440429688 32.859375 984.413085938 115.765625 1016.8984375 300 c 0
 1059.74511719 543 891.60546875 701 648.60546875 701 c 0
 385.60546875 701 174.692382812 503 131.844726562 260 c 0
 88.998046875 17 250.084960938 -181 493.084960938 -181 c 1
 487.971679688 -210 l 1
 228.971679688 -210 55.1767578125 1 100.844726562 260 c 0
EndSplineSet
EndChar

StartChar: bracketleft
Encoding: 91 91 86
Width: 315
VWidth: 0
Flags: HMW
LayerCount: 2
Fore
SplineSet
253.264648438 614 m 1
 273.71875 730 l 1
 423.71875 730 l 1
 403.264648438 614 l 1
 253.264648438 614 l 1
109.734375 -200 m 1
 130.188476562 -84 l 5
 280.188476562 -84 l 5
 259.734375 -200 l 1
 109.734375 -200 l 1
173.71875 730 m 1
 293.71875 730 l 1
 129.734375 -200 l 1
 9.734375 -200 l 1
 173.71875 730 l 1
EndSplineSet
EndChar

StartChar: asciicircum
Encoding: 94 94 88
Width: 510
VWidth: 0
Flags: HMW
LayerCount: 2
Fore
SplineSet
455.8203125 430 m 1
 318.71875 730 l 1
 448.71875 730 l 1
 565.8203125 430 l 1
 455.8203125 430 l 1
318.71875 730 m 1
 448.71875 730 l 1
 205.8203125 430 l 5
 95.8203125 430 l 1
 318.71875 730 l 1
EndSplineSet
EndChar

StartChar: underscore
Encoding: 95 95 89
Width: 600
VWidth: 0
Flags: HMW
LayerCount: 2
Fore
SplineSet
-12.580078125 -60 m 5
 591.419921875 -60 l 5
 570.260742188 -180 l 1
 -33.7392578125 -180 l 1
 -12.580078125 -60 l 5
EndSplineSet
EndChar

StartChar: braceleft
Encoding: 123 123 90
Width: 369
VWidth: 0
Flags: HMW
LayerCount: 2
Fore
SplineSet
112.306640625 325 m 1
 130.306640625 325 l 1
 109.147460938 205 l 1
 91.1474609375 205 l 1
 112.306640625 325 l 1
163.44921875 150 m 5
 283.44921875 150 l 5
 255.236328125 -10 l 1
 128.18359375 -50 l 1
 163.44921875 150 l 5
239.26953125 580 m 1
 352.216796875 540 l 1
 324.00390625 380 l 1
 204.00390625 380 l 1
 239.26953125 580 l 1
204.00390625 380 m 1
 324.00390625 380 l 1
 306.547851562 281 220.555664062 230 101.555664062 230 c 5
 112.306640625 325 l 1
 180.306640625 325 196.951171875 340 204.00390625 380 c 1
163.44921875 150 m 1
 170.501953125 190 159.147460938 205 91.1474609375 205 c 1
 113.8984375 300 l 1
 232.8984375 300 300.905273438 249 283.44921875 150 c 1
 163.44921875 150 l 1
352.216796875 540 m 1
 239.26953125 580 l 1
 253.19921875 659 342.71875 730 461.71875 730 c 1
 447.44140625 615 l 1
 369.44140625 615 359.26953125 580 352.216796875 540 c 1
255.236328125 -10 m 1
 248.18359375 -50 246.01171875 -85 324.01171875 -85 c 1
 297.734375 -200 l 1
 178.734375 -200 114.25390625 -129 128.18359375 -50 c 1
 255.236328125 -10 l 1
EndSplineSet
EndChar

StartChar: bar
Encoding: 124 124 92
Width: 320
VWidth: 0
Flags: HMW
LayerCount: 2
Fore
SplineSet
342.53515625 780 m 5
 190.893554688 -80 l 5
 100.893554688 -80 l 1
 252.53515625 780 l 1
 342.53515625 780 l 5
EndSplineSet
EndChar

StartChar: asciitilde
Encoding: 126 126 93
Width: 470
VWidth: 0
Flags: HMW
LayerCount: 2
Fore
SplineSet
153.91796875 164 m 1
 79.20703125 194 l 1
 97.572265625 272.260742188 153.396484375 320.638671875 204.767578125 320.638671875 c 0
 268.381835938 320.638671875 302.674804688 256.962890625 346.916992188 256.962890625 c 0
 391.41796875 256.962890625 405.533203125 286.58984375 412.129882812 324 c 1
 476.83984375 294 l 1
 456.711914062 205.739257812 403.5 167.361328125 353.33203125 167.361328125 c 0
 291.7734375 167.361328125 260.569335938 231.037109375 217.985351562 231.037109375 c 4
 174.184570312 231.037109375 160.513671875 201.41015625 153.91796875 164 c 1
EndSplineSet
EndChar

StartChar: tilde
Encoding: 732 732 98
Width: 500
VWidth: 0
Flags: HMW
AnchorPoint: "dot" 357.56 610 basechar 0
LayerCount: 2
Fore
SplineSet
245.795898438 600 m 5
 158.322265625 620 l 1
 176.6875 698.260742188 243.51171875 746.638671875 294.8828125 746.638671875 c 0
 358.497070312 746.638671875 386.31640625 702.962890625 430.55859375 702.962890625 c 0
 465.059570312 702.962890625 495.6484375 712.58984375 500.482421875 740 c 1
 586.955078125 720 l 1
 566.827148438 631.739257812 493.615234375 593.361328125 443.447265625 593.361328125 c 0
 381.888671875 593.361328125 357.158203125 637.037109375 314.57421875 637.037109375 c 4
 280.7734375 637.037109375 250.62890625 627.41015625 245.795898438 600 c 5
EndSplineSet
EndChar

StartChar: dotaccent
Encoding: 729 729 99
Width: 500
VWidth: 0
Flags: HMW
AnchorPoint: "dot" 354.033 590 basechar 0
LayerCount: 2
Fore
SplineSet
281.43359375 666 m 0
 289.720703125 713 335.59765625 752 382.59765625 752 c 0
 429.59765625 752 461.720703125 713 453.43359375 666 c 0
 445.146484375 619 399.26953125 580 352.26953125 580 c 0
 305.26953125 580 273.146484375 619 281.43359375 666 c 0
EndSplineSet
EndChar

StartChar: ring
Encoding: 730 730 100
Width: 500
VWidth: 0
Flags: HMW
AnchorPoint: "ring" 354.033 590 basechar 0
LayerCount: 2
Fore
SplineSet
319.90234375 680 m 0
 314.7890625 651 332.0859375 630 361.0859375 630 c 0
 390.0859375 630 414.7890625 651 419.90234375 680 c 0
 425.015625 709 407.71875 730 378.71875 730 c 4
 349.71875 730 325.015625 709 319.90234375 680 c 0
269.90234375 680 m 0
 279.600585938 735 332.53515625 780 387.53515625 780 c 0
 442.53515625 780 479.600585938 735 469.90234375 680 c 0
 460.204101562 625 407.26953125 580 352.26953125 580 c 0
 297.26953125 580 260.204101562 625 269.90234375 680 c 0
EndSplineSet
EndChar

StartChar: breve
Encoding: 728 728 101
Width: 500
VWidth: 0
Flags: HMW
AnchorPoint: "dot" 342.566 559 basechar 0
LayerCount: 2
Fore
SplineSet
363.725585938 679 m 1
 323.725585938 679 301.194335938 693 309.658203125 741 c 1
 193.600585938 735 l 1
 176.143554688 636 233.56640625 559 342.56640625 559 c 1
 363.725585938 679 l 1
363.725585938 679 m 5
 342.56640625 559 l 1
 451.56640625 559 536.143554688 636 553.600585938 735 c 1
 439.658203125 741 l 5
 431.194335938 693 405.725585938 679 363.725585938 679 c 5
EndSplineSet
EndChar

StartChar: circumflex
Encoding: 710 710 102
Width: 500
VWidth: 0
Flags: HMW
AnchorPoint: "dot" 361.086 630 basechar 0
LayerCount: 2
Fore
SplineSet
426.0859375 630 m 1
 343.71875 730 l 1
 433.71875 730 l 1
 516.0859375 630 l 1
 426.0859375 630 l 1
323.71875 730 m 5
 413.71875 730 l 1
 296.0859375 630 l 1
 206.0859375 630 l 5
 323.71875 730 l 5
EndSplineSet
EndChar

StartChar: caron
Encoding: 711 711 103
Width: 500
VWidth: 0
Flags: HMW
AnchorPoint: "dot" 361.086 630 basechar 0
LayerCount: 2
Fore
SplineSet
313.71875 730 m 1
 396.0859375 630 l 1
 306.0859375 630 l 5
 223.71875 730 l 5
 313.71875 730 l 1
416.0859375 630 m 1
 326.0859375 630 l 1
 443.71875 730 l 1
 533.71875 730 l 1
 416.0859375 630 l 1
EndSplineSet
EndChar

StartChar: cent
Encoding: 162 162 105
Width: 600
VWidth: 0
Flags: HMW
LayerCount: 2
Fore
SplineSet
405 600 m 5
 465 600 l 5
 355 -80 l 1
 295 -80 l 1
 405 600 l 5
EndSplineSet
Refer: 30 99 N 1 0 0 1 10 0 2
EndChar

StartChar: sterling
Encoding: 163 163 108
Width: 600
VWidth: 0
Flags: HMW
LayerCount: 2
Fore
SplineSet
177.934570312 45 m 1
 56.8232421875 -1 l 1
 275.056640625 272.541992188 144.181640625 278.921875 188.453125 530 c 1
 306.690429688 520 l 1
 274.265625 336.112304688 358.745117188 219.735351562 177.934570312 45 c 1
140.591796875 -25 m 1
 56.8232421875 -1 l 1
 145.188476562 77.2607421875 204.78125 101.638671875 276.15234375 101.638671875 c 0
 339.766601562 101.638671875 374.348632812 67.962890625 418.590820312 67.962890625 c 0
 463.091796875 67.962890625 485.62109375 88.58984375 512.216796875 126 c 5
 567.342773438 70 l 1
 527.21484375 -18.2607421875 458.41015625 -31.638671875 408.2421875 -31.638671875 c 0
 326.68359375 -31.638671875 275.190429688 2.037109375 232.606445312 2.037109375 c 0
 188.805664062 2.037109375 164.014648438 -5.58984375 140.591796875 -25 c 1
115.53125 400 m 1
 413.53125 400 l 1
 393.252929688 285 l 1
 95.2529296875 285 l 1
 115.53125 400 l 1
409.915039062 595 m 1
 424.192382812 710 l 1
 506.192382812 710 567.962890625 669 594.559570312 610 c 1
 513.924804688 527 l 1
 493.80078125 566 453.915039062 595 409.915039062 595 c 1
306.690429688 520 m 1
 188.453125 530 l 1
 207.672851562 639 291.192382812 710 424.192382812 710 c 1
 409.915039062 595 l 1
 354.915039062 595 315.330078125 569 306.690429688 520 c 1
EndSplineSet
EndChar

StartChar: currency
Encoding: 164 164 109
Width: 600
VWidth: 0
Flags: HMW
LayerCount: 2
Fore
SplineSet
159.852539062 209 m 5
 218.333007812 138 l 1
 105.405273438 42 l 1
 46.9248046875 113 l 5
 159.852539062 209 l 5
426.21484375 143 m 1
 508.734375 214 l 1
 591.924804688 113 l 1
 509.405273438 42 l 1
 426.21484375 143 l 1
605.680664062 588 m 1
 664.161132812 517 l 1
 531.236328125 404 l 1
 472.754882812 475 l 1
 605.680664062 588 l 1
118.161132812 517 m 1
 201.680664062 588 l 1
 294.754882812 475 l 1
 211.236328125 404 l 1
 118.161132812 517 l 1
243.54296875 315 m 0
 231.729492188 248 269.088867188 199 335.088867188 199 c 0
 411.088867188 199 455.729492188 248 467.54296875 315 c 0
 479.356445312 382 441.997070312 431 375.997070312 431 c 0
 309.997070312 431 255.356445312 382 243.54296875 315 c 0
139.54296875 315 m 0
 160.526367188 434 274.629882812 531 393.629882812 531 c 0
 512.629882812 531 592.526367188 434 571.54296875 315 c 0
 550.560546875 196 436.456054688 99 317.456054688 99 c 0
 198.456054688 99 118.560546875 196 139.54296875 315 c 0
EndSplineSet
EndChar

StartChar: brokenbar
Encoding: 166 166 111
Width: 300
VWidth: 0
Flags: HMW
LayerCount: 2
Fore
SplineSet
266.110351562 460 m 5
 196.110351562 460 l 5
 252.53515625 780 l 1
 322.53515625 780 l 1
 266.110351562 460 l 5
234.37109375 280 m 1
 170.893554688 -80 l 1
 100.893554688 -80 l 1
 164.37109375 280 l 1
 234.37109375 280 l 1
EndSplineSet
EndChar

StartChar: section
Encoding: 167 167 112
Width: 520
VWidth: 0
Flags: HMW
LayerCount: 2
Fore
SplineSet
389.685546875 140 m 1
 509.685546875 140 l 1
 495.755859375 61 412.236328125 -10 273.236328125 -10 c 0
 164.236328125 -10 106.524414062 37 63.337890625 104 c 1
 142.620117188 185 l 1
 179.803710938 135 235.514648438 105 293.514648438 105 c 0
 356.514648438 105 385.806640625 118 389.685546875 140 c 1
334.1328125 307 m 0
 447.782226562 288 530.844726562 260 509.685546875 140 c 1
 389.685546875 140 l 1
 393.211914062 160 390.467773438 180.76171875 284.560546875 196 c 0
 183.642578125 210.520507812 67.8349609375 328 233.40234375 473 c 1
 313.40234375 473 l 1
 195.76953125 373 239.2109375 322.869140625 334.1328125 307 c 0
278.390625 558 m 1
 179.272460938 563 l 1
 196.19921875 659 291.192382812 710 400.192382812 710 c 0
 509.192382812 710 554.138671875 670 588.733398438 628 c 1
 504.451171875 547 l 5
 472.26953125 580 427.915039062 595 379.915039062 595 c 0
 321.915039062 595 283.151367188 585 278.390625 558 c 1
389.57421875 508 m 0
 503.223632812 489 625.53125 400 459.08203125 250 c 1
 379.08203125 250 l 1
 494.951171875 340 449.436523438 401.76171875 343.528320312 417 c 0
 242.611328125 431.520507812 162.521484375 468 179.272460938 563 c 1
 278.390625 558 l 1
 274.864257812 538 294.65234375 523.869140625 389.57421875 508 c 0
EndSplineSet
EndChar

StartChar: copyright
Encoding: 169 169 114
Width: 850
VWidth: 0
Flags: HMW
LayerCount: 2
Fore
SplineSet
113 350 m 0
 113 174 254 30 425 30 c 0
 596 30 737 174 737 350 c 0
 737 526 596 670 425 670 c 0
 254 670 113 526 113 350 c 0
70 350 m 0
 70 549 230 710 425 710 c 0
 620 710 780 549 780 350 c 0
 780 151 620 -10 425 -10 c 0
 230 -10 70 151 70 350 c 0
EndSplineSet
Refer: 8 67 N 0.5 0 0 0.5 220.5 175 2
EndChar

StartChar: registered
Encoding: 174 174 116
Width: 850
VWidth: 0
Flags: HMW
LayerCount: 2
Fore
SplineSet
113 350 m 0
 113 174 254 30 425 30 c 0
 596 30 737 174 737 350 c 0
 737 526 596 670 425 670 c 0
 254 670 113 526 113 350 c 0
70 350 m 0
 70 549 230 710 425 710 c 0
 620 710 780 549 780 350 c 0
 780 151 620 -10 425 -10 c 0
 230 -10 70 151 70 350 c 0
EndSplineSet
Refer: 17 82 S 0.5 0 0 0.5 252 175 2
EndChar

StartChar: degree
Encoding: 176 176 119
Width: 400
VWidth: 0
Flags: HMW
LayerCount: 2
Fore
SplineSet
249.90234375 680 m 0
 243.025390625 641 268.559570312 610 307.559570312 610 c 0
 346.559570312 610 383.025390625 641 389.90234375 680 c 0
 396.779296875 719 371.245117188 750 332.245117188 750 c 0
 293.245117188 750 256.779296875 719 249.90234375 680 c 0
219.90234375 680 m 0
 229.600585938 735 282.53515625 780 337.53515625 780 c 0
 392.53515625 780 429.600585938 735 419.90234375 680 c 0
 410.204101562 625 357.26953125 580 302.26953125 580 c 0
 247.26953125 580 210.204101562 625 219.90234375 680 c 0
EndSplineSet
EndChar

StartChar: mu
Encoding: 181 181 120
Width: 635
VWidth: 0
Flags: HMW
LayerCount: 2
Fore
SplineSet
120 220 m 1
 240 220 l 1
 160 -198 l 5
 40 -198 l 5
 120 220 l 1
EndSplineSet
Refer: 40 117 N 1 0 0 1 0 0 2
EndChar

StartChar: grave
Encoding: 96 96 123
Width: 320
VWidth: 0
Flags: HMW
AnchorPoint: "dot" 304.033 590 basechar 0
LayerCount: 2
Fore
SplineSet
274.033203125 590 m 5
 178.71875 730 l 5
 318.71875 730 l 1
 374.033203125 590 l 1
 274.033203125 590 l 5
EndSplineSet
EndChar

StartChar: acute
Encoding: 180 180 124
Width: 320
VWidth: 0
Flags: HMW
AnchorPoint: "dot" 224.033 590 basechar 0
LayerCount: 2
Fore
SplineSet
244.033203125 590 m 1
 164.033203125 590 l 5
 268.71875 730 l 5
 388.71875 730 l 1
 244.033203125 590 l 1
EndSplineSet
EndChar

StartChar: logicalnot
Encoding: 172 172 126
Width: 540
VWidth: 0
Flags: HMW
LayerCount: 2
Fore
SplineSet
485.228515625 455 m 5
 555.228515625 455 l 5
 523.490234375 275 l 1
 453.490234375 275 l 1
 485.228515625 455 l 5
EndSplineSet
Refer: 78 45 N 1.13333 0 0.176327 1 8.96603 100 2
EndChar

StartChar: macron
Encoding: 175 175 127
Width: 300
VWidth: 0
Flags: HMW
LayerCount: 2
Fore
SplineSet
139.061523438 800 m 1
 443.061523438 800 l 5
 428.955078125 720 l 5
 124.955078125 720 l 1
 139.061523438 800 l 1
EndSplineSet
EndChar

StartChar: paragraph
Encoding: 182 182 130
Width: 600
VWidth: 0
Flags: HMW
LayerCount: 2
Fore
SplineSet
568.428710938 700 m 1
 560.670898438 656 l 1
 468.670898438 656 l 1
 476.428710938 700 l 1
 568.428710938 700 l 1
648.428710938 700 m 1
 525 0 l 1
 445 0 l 1
 568.428710938 700 l 1
 648.428710938 700 l 1
498.428710938 700 m 1
 375 0 l 1
 295 0 l 1
 418.428710938 700 l 1
 498.428710938 700 l 1
340.844726562 260 m 1
 241.844726562 260 136.890625 351 159.63671875 480 c 0
 182.3828125 609 319.428710938 700 418.428710938 700 c 1
 386.690429688 520 372.583984375 440 340.844726562 260 c 1
EndSplineSet
EndChar

StartChar: cedilla
Encoding: 184 184 131
Width: 320
VWidth: 0
Flags: HMW
AnchorPoint: "ced" 145.823 -1 basechar 0
LayerCount: 2
Fore
SplineSet
89.2900390625 30 m 1
 129.290039062 30 l 1
 173.294921875 -4 241.241210938 -44 229.250976562 -112 c 0
 219.201171875 -169 191.029296875 -204 114.029296875 -204 c 4
 67.029296875 -204 43.2607421875 -180 24.90625 -165 c 1
 59.2490234375 -95 l 1
 72.95703125 -108 91.8408203125 -120 111.840820312 -120 c 0
 137.840820312 -120 148.780273438 -109 152.306640625 -89 c 0
 156.71484375 -64 129.413085938 -9 89.2900390625 30 c 1
EndSplineSet
EndChar

StartChar: dotlessi
Encoding: 305 305 225
Width: 270
VWidth: 0
Flags: HMW
AnchorPoint: "ced" 135 0 basechar 0
LayerCount: 2
Fore
SplineSet
166.690429688 520 m 5
 286.690429688 520 l 1
 195 0 l 1
 75 0 l 5
 166.690429688 520 l 5
EndSplineSet
EndChar

StartChar: uni0237
Encoding: 567 567 349
Width: 270
VWidth: 0
Flags: HMW
LayerCount: 2
Fore
SplineSet
170.690429688 520 m 1
 290.690429688 520 l 1
 188.419921875 -60 l 1
 71.7705078125 -41 l 5
 170.690429688 520 l 1
21.072265625 -96 m 5
 6.9716796875 -210 l 1
 -50.0283203125 -210 -97.20703125 -194 -118.211914062 -160 c 1
 -62.9326171875 -62 l 5
 -49.2822265625 -81 -21.927734375 -96 21.072265625 -96 c 5
71.7705078125 -41 m 5
 188.419921875 -60 l 1
 174.490234375 -139 105.971679688 -210 6.9716796875 -210 c 1
 21.072265625 -96 l 5
 58.072265625 -96 64.7177734375 -81 71.7705078125 -41 c 5
EndSplineSet
EndChar

StartChar: kgreenlandic
Encoding: 312 312 573
Width: 590
VWidth: 0
Flags: HMW
AnchorPoint: "dot" 325 673 basechar 0
AnchorPoint: "ced" 515 0 basechar 0
LayerCount: 2
Fore
SplineSet
245 291 m 1
 345 305 l 5
 565 0 l 5
 455 0 l 1
 245 291 l 1
430 520 m 1
 545 520 l 5
 185 110 l 5
 110 154 l 1
 430 520 l 1
85 520 m 1
 185 520 l 5
 185 0 l 5
 85 0 l 1
 85 520 l 1
EndSplineSet
EndChar

StartChar: ogonek
Encoding: 731 731 574
Width: 320
VWidth: 0
Flags: HMW
AnchorPoint: "ced" 149 0 basechar 0
LayerCount: 2
Fore
SplineSet
214.290039062 30 m 1
 160.413085938 -9 103.71484375 -64 99.306640625 -89 c 0
 95.427734375 -111 107.840820312 -120 138.840820312 -120 c 0
 168.840820312 -120 179.075195312 -113 199.3671875 -100 c 5
 209.90625 -165 l 1
 186.260742188 -180 154.029296875 -204 107.029296875 -204 c 0
 40.029296875 -204 4.201171875 -169 14.2509765625 -112 c 0
 24.478515625 -54 118.294921875 -4 174.290039062 30 c 1
 214.290039062 30 l 1
EndSplineSet
EndChar

StartChar: AE
Encoding: 198 198 582
Width: 1090
VWidth: 0
Flags: HMW
LayerCount: 2
Fore
SplineSet
530 700 m 1
 655 700 l 1
 650 580 l 1
 530 580 l 1
 530 700 l 1
234 260 m 5
 596 260 l 1
 596 145 l 1
 204 145 l 1
 234 260 l 5
530 700 m 1
 645 690 l 1
 165 0 l 1
 40 0 l 1
 530 700 l 1
EndSplineSet
Refer: 0 69 N 1 0 0 1 430 0 2
EndChar

StartChar: fi
Encoding: 64257 64257 585
Width: 405
VWidth: 0
Flags: HMW
AnchorPoint: "ced" 175 0 basechar 0
LayerCount: 2
Fore
SplineSet
136.690429688 520 m 1
 469.690429688 520 l 1
 449.412109375 405 l 1
 116.412109375 405 l 1
 136.690429688 520 l 1
340.506835938 570 m 1
 240 0 l 1
 115 0 l 1
 219.033203125 590 l 1
 340.506835938 570 l 1
340.506835938 570 m 1
 219.033203125 590 l 1
 232.962890625 669 323.482421875 740 412.482421875 740 c 1
 408.204101562 625 l 1
 373.204101562 625 345.620117188 599 340.506835938 570 c 1
408.204101562 625 m 1
 412.482421875 740 l 1
 440.296875 740 473.91015625 735.572265625 491.599609375 717.98046875 c 1
 472.030273438 607 l 5
 461.44140625 615 437.204101562 625 408.204101562 625 c 1
EndSplineSet
EndChar
